<svg id="visual" viewBox="0 0 960 540" width="960" height="540" xmlns="http://www.w3.org/2000/svg" xmlns:xlink="http://www.w3.org/1999/xlink" version="1.1"><rect x="0" y="0" width="960" height="540" fill="#ffffff"></rect><defs><linearGradient id="grad1_0" x1="43.8%" y1="100%" x2="100%" y2="0%"><stop offset="14.444444444444446%" stop-color="#ffffff" stop-opacity="1"></stop><stop offset="85.55555555555554%" stop-color="#ffffff" stop-opacity="1"></stop></linearGradient></defs><defs><linearGradient id="grad2_0" x1="0%" y1="100%" x2="56.3%" y2="0%"><stop offset="14.444444444444446%" stop-color="#ffffff" stop-opacity="1"></stop><stop offset="85.55555555555554%" stop-color="#ffffff" stop-opacity="1"></stop></linearGradient></defs><g transform="translate(960, 540)"><path d="M-405 0C-394.3 -70.6 -383.5 -141.2 -350.7 -202.5C-318 -263.8 -263.1 -315.9 -201 -348.1C-138.9 -380.4 -69.4 -392.7 0 -405L0 0Z" fill="#EEF592"></path></g><g transform="translate(0, 0)"><path d="M405 0C394.9 71.6 384.7 143.2 350.7 202.5C316.8 261.8 258.9 308.7 196.5 340.3C134.1 372 67 388.5 0 405L0 0Z" fill="#EEF592"></path></g></svg>